<svg xmlns="http://www.w3.org/2000/svg" xmlns:xlink="http://www.w3.org/1999/xlink" width="690.99" height="174.644" viewBox="0 0 690.99 174.644"><defs><clipPath id="a"><rect width="148.648" height="174.644" transform="translate(0 0)" fill="none"/></clipPath></defs><g transform="translate(-1280 -106.568)"><text transform="translate(1468.99 178.532)" fill="#43425d" font-size="57" font-family="Ubuntu-Bold, Ubuntu" font-weight="700" letter-spacing="0.2em"><tspan x="0" y="0">MEDICALAPP</tspan></text><g transform="translate(1280 106.568)"><g transform="translate(0 0)" clip-path="url(#a)"><path d="M131.037,174.644H17.61A17.61,17.61,0,0,1,0,157.033V17.611A17.61,17.61,0,0,1,17.61,0H131.037a17.611,17.611,0,0,1,17.611,17.611V157.033a17.611,17.611,0,0,1-17.611,17.611" transform="translate(0 0)" fill="#8b8cc4"/><path d="M124.39,139.5H20.009A14.372,14.372,0,0,1,5.636,125.123V23.982A14.373,14.373,0,0,1,20.009,9.609H124.39a14.373,14.373,0,0,1,14.373,14.373V125.123A14.372,14.372,0,0,1,124.39,139.5" transform="translate(2.124 3.622)" fill="#fff"/><path d="M59.992,60.768H50.525A2.666,2.666,0,0,1,47.861,58.1V24.179a2.666,2.666,0,0,1,2.664-2.666h9.466a2.666,2.666,0,0,1,2.666,2.666V58.1a2.666,2.666,0,0,1-2.666,2.666" transform="translate(18.041 8.109)" fill="#336bb3"/><path d="M19.891,107.871h0a4,4,0,0,1-4-4V54.018a4,4,0,0,1,7.992,0v49.858a4,4,0,0,1-4,4" transform="translate(5.991 18.855)" fill="#336bb3"/><path d="M90.587,104.474h0a4,4,0,0,1-4-4V63.032a4,4,0,1,1,7.992,0v37.446a4,4,0,0,1-4,4" transform="translate(32.64 22.253)" fill="#336bb3"/><rect width="93.347" height="7.992" transform="translate(25.882 101.043)" fill="#336bb3"/><path d="M26.053,69.482V66.448a2.479,2.479,0,0,1,2.479-2.479H49.625A2.479,2.479,0,0,1,52.1,66.448v3.035a2.479,2.479,0,0,1-2.479,2.478H28.531a2.479,2.479,0,0,1-2.479-2.478" transform="translate(9.82 24.113)" fill="#336bb3"/><path d="M38.98,43.2V32.387A1.993,1.993,0,0,1,40.972,30.4h35.27a1.993,1.993,0,0,1,1.992,1.992V43.2a1.993,1.993,0,0,1-1.992,1.992H40.972A1.993,1.993,0,0,1,38.98,43.2" transform="translate(14.693 11.457)" fill="#336bb3"/></g></g><text transform="translate(1468.99 205.953)" fill="#8b8cc4" font-size="40" font-family="Ubuntu-Light, Ubuntu" font-weight="300" letter-spacing="0.181em"><tspan x="0" y="37">Servicio para todos</tspan></text></g></svg>